# xmcd CD database file generated by OrangeCD 5.2
#
# Track frame offsets:
#	182
#	9182
#	19830
#	31115
#	40437
#	53495
#	64515
#	76745
#	88587
#	97847
#	108407
#	121877
#	134625
#	147575
#	158687
#	172120
#	182340
#	193100
#	202865
#
# Disc length: 2884 seconds
#
# Revision: 0
# Processed by: cddbd v1.5.1PL0 Copyright (c) Steve Scherf et al.
# Submitted via: OrangeCD 5.2
#
DISCID=eb0b4213
DTITLE=Various Artist - Red Hot Rhythm and Blues
DYEAR=1995
DGENRE=R&B Compilation
TTITLE0=Arthur Alexander - A Shot Of Rhythm And Blues
TTITLE1=Clarence "Frogman" Henry - Ain't Got No Home
TTITLE2=Bo Diddley - Who Do You Love
TTITLE3=Ike and Tina Turner - I Can't Believe What You Say
TTITLE4=Jackie Wilson - Doggin' Around
TTITLE5=The Olympics - Western Movies
TTITLE6=Bobby "Blue" Bland - Ain't Doin' Too Bad  Part 1
TTITLE7=Bobby "Blue" Bland - Ain't Doin' Too Bad  Part 2
TTITLE8=James Ray - If You Gotta Make A Fool Of Somebody
TTITLE9=Barbara George - I Know
TTITLE10=Chuck Berry - No Money Down
TTITLE11=Jackie Brenston and His Delta Kings - Rocket 88
TTITLE12=Gary U.S. Bonds - New Orleans
TTITLE13=Wilbert Harrison - Kancis City
TTITLE14=Etta James - Roll With Me Henry
TTITLE15=Teddy and The Twilights - A Woman Is A Man's Best Friend
TTITLE16=Lloyd Price - Stagger Lee
TTITLE17=Little Richard - Oh Why 
TTITLE18=Koko Taylor - Wang Dang Doodle
EXTD=
EXTT0=
EXTT1=
EXTT2=
EXTT3=
EXTT4=
EXTT5=
EXTT6=
EXTT7=
EXTT8=
EXTT9=
EXTT10=
EXTT11=
EXTT12=
EXTT13=
EXTT14=
EXTT15=
EXTT16=
EXTT17=
EXTT18=
PLAYORDER=
